<!--?xml version="1.0" encoding="utf-8"?-->
<!-- Generator: Adobe Illustrator 22.1.0, SVG Export Plug-In . SVG Version: 6.00 Build 0)  -->
<svg version="1.1" id="_x36_" xmlns="http://www.w3.org/2000/svg" xmlns:xlink="http://www.w3.org/1999/xlink" x="0px" y="0px" viewBox="0 0 719.8 800" style="enable-background:new 0 0 719.8 800;" xml:space="preserve">
<style type="text/css">
	.st0{fill:#004F7F;}
</style>
<g>
	<path class="st0" d="M656.7,439.6h-2c0,81.1-32.9,154.5-86,207.6c-53.1,53.1-126.5,86-207.6,86c-81.1,0-154.5-32.9-207.6-86
		c-53.1-53.1-86-126.5-86-207.6c0-81.1,32.9-154.5,86-207.6c53.1-53.1,126.5-86,207.6-86c81.1,0,154.5,32.9,207.6,86
		c53.1,53.1,86,126.5,86,207.6H656.7h2c0-164.4-133.3-297.7-297.7-297.7c-164.4,0-297.7,133.3-297.7,297.7
		C63.4,604,196.6,737.2,361,737.3c164.4,0,297.7-133.3,297.7-297.7H656.7z" style="fill: rgb(119, 39, 57);"></path>
	<path class="st0" d="M643.7,439.6h-1.6c0,77.6-31.5,147.9-82.3,198.7c-50.9,50.9-121.1,82.3-198.7,82.3
		c-77.6,0-147.9-31.5-198.7-82.3C111.5,587.4,80,517.2,80,439.6c0-77.6,31.5-147.9,82.3-198.7c50.9-50.9,121.1-82.3,198.7-82.3
		c77.6,0,147.9,31.5,198.7,82.3c50.9,50.9,82.3,121.1,82.3,198.7L643.7,439.6l1.6,0c0-157-127.3-284.3-284.3-284.3
		S76.8,282.6,76.8,439.6c0,157,127.3,284.3,284.3,284.3c157,0,284.3-127.3,284.3-284.3H643.7z" style="fill: rgb(119, 39, 57);"></path>
	<path class="st0" d="M286.7,137.7c-4.7-0.9-5.5-8.6-8-12c-4.1-5.5-12.6,1.9-3.8,8.7C280.4,138.6,286.7,137.7,286.7,137.7z" style="fill: rgb(119, 39, 57);"></path>
	<path class="st0" d="M359.5,107.4c-0.5,2.3-6.5,18.3-19.3,25.4c-5.3,2.8,4.6,5.1,8.7,1.4c4.1-3.7,0.3-4.8,1.8-5.8
		c1.5-1,3.7,0.6,5.1-1c1.4-1.5-2.2-3.8-0.3-5.9C357.3,119.6,359.7,110.1,359.5,107.4z" style="fill: rgb(119, 39, 57);"></path>
	<path class="st0" d="M256.3,149.7c10.2,2.9,1.2,18.2-8.1,11.8c-6.9-4.7-7.1-20.1,9.2-25.5c20.3-6.8,35.7,9.6,62.7,2.9l2.5-0.6
		c0,0,1.8,1.3,0.5,2c-1.3,0.6-15.7,3.9-29,0.9c-13.2-2.9-28.8-7.9-39-2.2c-8.9,5-9.5,9.8-8.9,14.7c0.6,4.9,4.5,7.2,8.3,6
		c3.9-1.3,3.9-4.8,1.9-4.3c-4.5,1.1-5.7-0.5-5.3-3.2C251.6,150,254.1,149.1,256.3,149.7z" style="fill: rgb(119, 39, 57);"></path>
	<path class="st0" d="M329.5,133.6c-3.8,1.6-1.6,8.1,1.7,6.7C335.9,138.3,332.7,132.2,329.5,133.6z" style="fill: rgb(119, 39, 57);"></path>
	<path class="st0" d="M313,141.9c-8.1,1.6-10.5,5.3-14.1,5.5c-3,0.2-0.4-3.3-2.1-3.1c-1.7,0.2-3.5,4-7.4,3.4c-3-0.4-5.5-7.8,4.6-7.4
		C304.2,140.7,309.9,142.9,313,141.9z" style="fill: rgb(119, 39, 57);"></path>
	<path class="st0" d="M268.2,136.3c-5.3,1.6-6,8.3-8.3,8.6c-2.3,0.3-4.9-4.1-1-7.5C262.8,134.1,268.2,136.3,268.2,136.3z" style="fill: rgb(119, 39, 57);"></path>
	<path class="st0" d="M435.4,137.7c4.7-0.9,5.5-8.6,8-12c4.1-5.5,12.6,1.9,3.8,8.7C441.7,138.6,435.4,137.7,435.4,137.7z" style="fill: rgb(119, 39, 57);"></path>
	<path class="st0" d="M362.6,107.4c0.5,2.3,6.5,18.3,19.3,25.4c5.3,2.8-4.6,5.1-8.7,1.4c-4.1-3.7-0.3-4.8-1.8-5.8
		c-1.5-1-3.7,0.6-5.1-1c-1.4-1.5,2.2-3.8,0.3-5.9C364.8,119.6,362.4,110.1,362.6,107.4z" style="fill: rgb(119, 39, 57);"></path>
	<path class="st0" d="M465.8,149.7c-10.2,2.9-1.2,18.2,8.1,11.8c6.9-4.7,7.1-20.1-9.2-25.5c-20.3-6.8-35.7,9.6-62.7,2.9l-2.5-0.6
		c0,0-1.8,1.3-0.5,2c1.3,0.6,15.7,3.9,29,0.9c13.2-2.9,28.8-7.9,39-2.2c8.9,5,9.5,9.8,8.9,14.7c-0.6,4.9-4.5,7.2-8.3,6
		c-3.9-1.3-3.9-4.8-1.9-4.3c4.5,1.1,5.7-0.5,5.3-3.2C470.5,150,468,149.1,465.8,149.7z" style="fill: rgb(119, 39, 57);"></path>
	<path class="st0" d="M392.6,133.6c3.8,1.6,1.6,8.1-1.7,6.7C386.1,138.3,389.4,132.2,392.6,133.6z" style="fill: rgb(119, 39, 57);"></path>
	<path class="st0" d="M409.1,141.9c8.1,1.6,10.5,5.3,14.1,5.5c3,0.2,0.4-3.3,2.1-3.1c1.7,0.2,3.5,4,7.4,3.4c3-0.4,5.5-7.8-4.6-7.4
		C417.9,140.7,412.2,142.9,409.1,141.9z" style="fill: rgb(119, 39, 57);"></path>
	<path class="st0" d="M453.9,136.3c5.3,1.6,6,8.3,8.3,8.6c2.3,0.3,4.9-4.1,1-7.5C459.2,134.1,453.9,136.3,453.9,136.3z" style="fill: rgb(119, 39, 57);"></path>
	<path class="st0" d="M376.1,16.7c-0.6-1.7-5.8,5.2-7.5,1.2c-1.7-4-2.3-9.8-7.5-13.9c-5.2,4-5.8,9.8-7.5,13.9
		c-1.7,4-6.9-2.9-7.5-1.2c-0.6,1.7-1.2,9.3,4,12.1c5.2,2.9,9.3,9.3,9.3,13.3c0,4-2.3,5.8-2.3,8.1c0,2.3,4,11,4,11s4-8.7,4-11
		c0-2.3-2.3-4-2.3-8.1c0-4,4-10.4,9.3-13.3C377.2,26,376.6,18.5,376.1,16.7z M365.4,25.7c-2.5,1.3-4.4,5.3-4.4,5.3s-1.9-4-4.4-5.3
		c-2.5-1.3-1.5-2.8-0.8-2.8c0.8,0,2.8-1.1,2.5-2.3c-0.4-1.1,1.1-4.2,2.6-4.5c1.5,0.4,3,3.4,2.6,4.5c-0.4,1.1,1.7,2.3,2.5,2.3
		C366.9,22.8,367.8,24.3,365.4,25.7z" style="fill: rgb(119, 39, 57);"></path>
	<path class="st0" d="M317.7,84.5c-6.7-2.7-12.7,9-3.2,14.7c13.1,7.7,30.5-12.1,16.2-29c-14.3-16.9-47-5.3-48.1,23.4
		c-1.2,30.2,36.4,52,63.8,27.3c27-24.5,16.2-60.5-8.5-75.8c-6.9-4.3-8.5-5.8-10.4-8c-1.4,3.9-0.8,10.2,4.3,12.3
		c-2.4,2.8-0.7,8.2,3.4,8.5c2.5-8.2,8.5-6.3,11.5-2.8c2.9,3.3,14.9,16.5,12.1,32.7c0,0-3.5-0.9-4.8-3.5c-3.9,2.6-2.6,8.2-1.3,11.3
		c1.3,3,1.3,13-3.9,18.2c-1.7-5.2-7.8-0.9-10.4,6.5c-2.6,7.4-20.8,10-32.1,6.1c-11.3-3.9-21.3-16.5-21.7-33
		c-0.4-16.5,14.7-26.9,23.4-28.2c7.8-1.3,8.7,7.8,13.4,7.8c4.8,0,4.3-3,4.3-3s8.7,4.8,8.2,13.9c-0.4,9.1-5.6,10-8.7,8.7
		c-3-1.3-1.7,3.9-1.7,3.9s-4.8,2.2-5.6-1.7c-0.9-3.9,0.9-6.5-2.6-5.2C315.3,87.9,317.7,84.5,317.7,84.5z" style="fill: rgb(119, 39, 57);"></path>
	<path class="st0" d="M352.6,47.4c2-2,2.3-9.8-2-11.9c-4.3-2-7.5-7.2-8.1-9c-2.6,0.9-2.6,5.5-1.2,7.5c-2.9-1.2-4-1.7-4-0.9
		c0,0.9-0.3,5.2,5.2,6.9C346.9,41.5,352.9,45.3,352.6,47.4z" style="fill: rgb(119, 39, 57);"></path>
	<path class="st0" d="M314.4,128.9c-4-2.3,1.2-9.8-4.3-14.2c-5.5-4.3-13,3.2-6.1,11.9C312.1,131.2,314.4,128.9,314.4,128.9z" style="fill: rgb(119, 39, 57);"></path>
	<path class="st0" d="M291.9,117c-2.3-3.5,0.9-6.4,1.7-11c0.9-4.6-5.6-10.7-8.1,0C286.7,110.4,291.9,117,291.9,117z" style="fill: rgb(119, 39, 57);"></path>
	<path class="st0" d="M284.3,89.6c1.4-4.6,3.4-5.6,9.8-5.8c5.1-0.1,5.5-6.1,1.7-8.1C292.1,73.7,284.9,78.9,284.3,89.6z" style="fill: rgb(119, 39, 57);"></path>
	<path class="st0" d="M356,83.2c0-1.4-1.2-12.7-8.1-17.1c-6.9-4.3-11.9,3.5-7.8,6.6c2.9-2.3,5.2-3.5,6.4-2.6
		c-1.2,1.7-2.3,3.8,1.2,3.8C351.1,74,354.9,80,356,83.2z" style="fill: rgb(119, 39, 57);"></path>
	<path class="st0" d="M404.4,84.5c6.6-2.7,12.7,9,3.2,14.7c-13.1,7.7-30.5-12.1-16.2-29c14.3-16.9,47-5.3,48.1,23.4
		c1.2,30.2-36.4,52-63.8,27.3c-27-24.5-16.2-60.5,8.5-75.8c6.9-4.3,8.5-5.8,10.4-8c1.4,3.9,0.8,10.2-4.3,12.3
		c2.4,2.8,0.7,8.2-3.4,8.5c-2.5-8.2-8.5-6.3-11.5-2.8c-2.9,3.3-14.9,16.5-12.1,32.7c0,0,3.5-0.9,4.8-3.5c3.9,2.6,2.6,8.2,1.3,11.3
		c-1.3,3-1.3,13,3.9,18.2c1.7-5.2,7.8-0.9,10.4,6.5c2.6,7.4,20.8,10,32.1,6.1c11.3-3.9,21.3-16.5,21.7-33
		c0.4-16.5-14.7-26.9-23.4-28.2c-7.8-1.3-8.7,7.8-13.4,7.8c-4.8,0-4.3-3-4.3-3s-8.7,4.8-8.2,13.9c0.4,9.1,5.6,10,8.7,8.7
		c3-1.3,1.7,3.9,1.7,3.9s4.8,2.2,5.6-1.7c0.9-3.9-0.9-6.5,2.6-5.2C406.7,87.9,404.4,84.5,404.4,84.5z" style="fill: rgb(119, 39, 57);"></path>
	<path class="st0" d="M369.4,47.4c-2-2-2.3-9.8,2-11.9c4.3-2,7.5-7.2,8.1-9c2.6,0.9,2.6,5.5,1.2,7.5c2.9-1.2,4-1.7,4-0.9
		c0,0.9,0.3,5.2-5.2,6.9C375.1,41.5,369.2,45.3,369.4,47.4z" style="fill: rgb(119, 39, 57);"></path>
	<path class="st0" d="M407.6,128.9c4-2.3-1.2-9.8,4.3-14.2c5.5-4.3,13,3.2,6.1,11.9C410,131.2,407.6,128.9,407.6,128.9z" style="fill: rgb(119, 39, 57);"></path>
	<path class="st0" d="M430.2,117c2.3-3.5-0.9-6.4-1.7-11c-0.9-4.6,5.6-10.7,8.1,0C435.4,110.4,430.2,117,430.2,117z" style="fill: rgb(119, 39, 57);"></path>
	<path class="st0" d="M437.7,89.6c-1.4-4.6-3.4-5.6-9.8-5.8c-5.1-0.1-5.5-6.1-1.7-8.1C429.9,73.7,437.1,78.9,437.7,89.6z" style="fill: rgb(119, 39, 57);"></path>
	<path class="st0" d="M366,83.2c0-1.4,1.2-12.7,8.1-17.1c6.9-4.3,11.9,3.5,7.8,6.6c-2.9-2.3-5.2-3.5-6.4-2.6
		c1.2,1.7,2.3,3.8-1.2,3.8C370.9,74,367.2,80,366,83.2z" style="fill: rgb(119, 39, 57);"></path>
	<path class="st0" d="M672.4,439.6h43.9c-1.6-4.1-7.3-4.9-8.1-5.7c-1.6-7.3-8.9-8.9-8.9-8.9c-0.8,9.7-22.3,15.7-32.5,9.7
		c-9.7-5.7-8.7-17.6-1.6-22.5c6.3-4.4,15.4-1.1,13.8,5.4c-1.6,6.5-4.3-1.9-6.5,2.4c-6.5,1.6-1.6,7.3,4.9,4.1
		c6.5-3.2,6-15.2-3.8-17.1c-7.6-1.5-17.1,5.1-16.8,16C657,433.9,665.1,439.6,672.4,439.6z" style="fill: rgb(119, 39, 57);"></path>
	<path class="st0" d="M663.2,413c1.9-0.8,5.7-0.5,7.3,1.6c-7.3,1.9-8.9,5.1-8.7,7.6c3,2.2,5.1,1.1,3.5,4.9
		c-1.6,3.8,1.6,8.7,6.8,10.3c-12.7-1.6-15.4-10.8-13.8-18.4C659.9,411.4,663.2,413,663.2,413z" style="fill: rgb(119, 39, 57);"></path>
	<path class="st0" d="M672.4,439.6h43.9c-1.6,4.1-7.3,4.9-8.1,5.7c-1.6,7.3-8.9,8.9-8.9,8.9c-0.8-9.7-22.3-15.7-32.5-9.7
		c-9.7,5.7-8.7,17.6-1.6,22.5c6.3,4.4,15.4,1.1,13.8-5.4c-1.6-6.5-4.3,1.9-6.5-2.4c-6.5-1.6-1.6-7.3,4.9-4.1
		c6.5,3.2,6,15.2-3.8,17.1c-7.6,1.5-17.1-5.1-16.8-16C657,445.3,665.1,439.6,672.4,439.6z" style="fill: rgb(119, 39, 57);"></path>
	<path class="st0" d="M663.2,466.1c1.9,0.8,5.7,0.5,7.3-1.6c-7.3-1.9-8.9-5.1-8.7-7.6c3-2.2,5.1-1.1,3.5-4.9
		c-1.6-3.8,1.6-8.7,6.8-10.3c-12.7,1.6-15.4,10.8-13.8,18.4C659.9,467.7,663.2,466.1,663.2,466.1z" style="fill: rgb(119, 39, 57);"></path>
	<path class="st0" d="M47.5,439.6H3.6c1.6-4.1,7.3-4.9,8.1-5.7c1.6-7.3,8.9-8.9,8.9-8.9c0.8,9.7,22.3,15.7,32.5,9.7
		c9.7-5.7,8.7-17.6,1.6-22.5c-6.3-4.4-15.4-1.1-13.8,5.4c1.6,6.5,4.3-1.9,6.5,2.4c6.5,1.6,1.6,7.3-4.9,4.1c-6.5-3.2-6-15.2,3.8-17.1
		c7.6-1.5,17.1,5.1,16.8,16C62.9,433.9,54.8,439.6,47.5,439.6z" style="fill: rgb(119, 39, 57);"></path>
	<path class="st0" d="M56.7,413c-1.9-0.8-5.7-0.5-7.3,1.6c7.3,1.9,8.9,5.1,8.7,7.6c-3,2.2-5.1,1.1-3.5,4.9c1.6,3.8-1.6,8.7-6.8,10.3
		c12.7-1.6,15.4-10.8,13.8-18.4C59.9,411.4,56.7,413,56.7,413z" style="fill: rgb(119, 39, 57);"></path>
	<path class="st0" d="M47.5,439.6H3.6c1.6,4.1,7.3,4.9,8.1,5.7c1.6,7.3,8.9,8.9,8.9,8.9c0.8-9.7,22.3-15.7,32.5-9.7
		c9.7,5.7,8.7,17.6,1.6,22.5c-6.3,4.4-15.4,1.1-13.8-5.4c1.6-6.5,4.3,1.9,6.5-2.4c6.5-1.6,1.6-7.3-4.9-4.1c-6.5,3.2-6,15.2,3.8,17.1
		c7.6,1.5,17.1-5.1,16.8-16C62.9,445.3,54.8,439.6,47.5,439.6z" style="fill: rgb(119, 39, 57);"></path>
	<path class="st0" d="M56.7,466.1c-1.9,0.8-5.7,0.5-7.3-1.6c7.3-1.9,8.9-5.1,8.7-7.6c-3-2.2-5.1-1.1-3.5-4.9
		c1.6-3.8-1.6-8.7-6.8-10.3c12.7,1.6,15.4,10.8,13.8,18.4C59.9,467.7,56.7,466.1,56.7,466.1z" style="fill: rgb(119, 39, 57);"></path>
	<path class="st0" d="M359.9,752.1V796c4.1-1.6,4.9-7.3,5.7-8.1c7.3-1.6,8.9-8.9,8.9-8.9c-9.7-0.8-15.7-22.3-9.7-32.5
		c5.7-9.7,17.6-8.7,22.5-1.6c4.4,6.3,1.1,15.4-5.4,13.8c-6.5-1.6,1.9-4.3-2.4-6.5c-1.6-6.5-7.3-1.6-4.1,4.9c3.2,6.5,15.2,6,17.1-3.8
		c1.5-7.6-5.1-17.1-16-16.8C365.6,736.7,359.9,744.8,359.9,752.1z" style="fill: rgb(119, 39, 57);"></path>
	<path class="st0" d="M386.5,742.9c0.8,1.9,0.5,5.7-1.6,7.3c-1.9-7.3-5.1-8.9-7.6-8.7c-2.2,3-1.1,5.1-4.9,3.5
		c-3.8-1.6-8.7,1.6-10.3,6.8c1.6-12.7,10.8-15.4,18.4-13.8C388.1,739.7,386.5,742.9,386.5,742.9z" style="fill: rgb(119, 39, 57);"></path>
	<path class="st0" d="M359.9,752.1V796c-4.1-1.6-4.9-7.3-5.7-8.1c-7.3-1.6-8.9-8.9-8.9-8.9c9.7-0.8,15.7-22.3,9.7-32.5
		c-5.7-9.7-17.6-8.7-22.5-1.6c-4.4,6.3-1.1,15.4,5.4,13.8c6.5-1.6-1.9-4.3,2.4-6.5c1.6-6.5,7.3-1.6,4.1,4.9
		c-3.2,6.5-15.2,6-17.1-3.8c-1.5-7.6,5.1-17.1,16-16.8C354.2,736.7,359.9,744.8,359.9,752.1z" style="fill: rgb(119, 39, 57);"></path>
	<path class="st0" d="M333.4,742.9c-0.8,1.9-0.5,5.7,1.6,7.3c1.9-7.3,5.1-8.9,7.6-8.7c2.2,3,1.1,5.1,4.9,3.5
		c3.8-1.6,8.7,1.6,10.3,6.8c-1.6-12.7-10.8-15.4-18.4-13.8C331.8,739.7,333.4,742.9,333.4,742.9z" style="fill: rgb(119, 39, 57);"></path>
	<path class="st0" d="M669.8,393.3c1,0,1.9-0.4,2.6-1.1c0.7-0.7,1.1-1.6,1.1-2.6c0-1-0.4-1.9-1.1-2.6c-0.7-0.7-1.6-1.1-2.6-1.1
		c-1,0-1.9,0.4-2.6,1.1c-0.7,0.7-1.1,1.6-1.1,2.6c0,1,0.4,1.9,1.1,2.6C667.9,392.9,668.8,393.3,669.8,393.3" style="fill: rgb(119, 39, 57);"></path>
	<path class="st0" d="M514.8,163L514.8,163c-1.8-1-4-0.3-5,1.4c-1,1.8-0.3,4,1.4,5c1.8,1,4,0.3,5-1.4
		C517.2,166.2,516.5,164,514.8,163z M532.3,173.5L532.3,173.5c-1.7-1.1-4-0.6-5.1,1.1c-1.1,1.7-0.6,4,1.1,5.1l0,0
		c1.7,1.1,4,0.6,5.1-1.1C534.4,176.9,534,174.6,532.3,173.5z M549,185.1L549,185.1c-1.6-1.2-3.9-0.9-5.1,0.8
		c-1.2,1.6-0.9,3.9,0.8,5.1c1.6,1.2,3.9,0.9,5.1-0.8C551,188.6,550.7,186.3,549,185.1z M565,197.8L565,197.8
		c-1.5-1.3-3.8-1.1-5.2,0.4c-1.3,1.5-1.1,3.8,0.4,5.2c1.5,1.3,3.8,1.1,5.2-0.4C566.8,201.4,566.6,199.1,565,197.8z M580.2,211.4
		L580.2,211.4c-1.5-1.4-3.8-1.4-5.2,0.1c-1.4,1.5-1.4,3.8,0.1,5.2h0c1.5,1.4,3.8,1.4,5.2-0.1C581.7,215.1,581.6,212.8,580.2,211.4z
		 M594.4,226L594.4,226c-1.4-1.5-3.7-1.6-5.2-0.2c-1.5,1.4-1.6,3.7-0.2,5.2s3.7,1.6,5.2,0.2C595.7,229.8,595.8,227.5,594.4,226z
		 M607.7,241.5L607.7,241.5c-1.3-1.6-3.6-1.8-5.1-0.6c-1.6,1.3-1.8,3.6-0.6,5.1l0,0c1.3,1.6,3.6,1.8,5.1,0.6
		C608.7,245.4,609,243.1,607.7,241.5z M620,257.8L620,257.8c-1.2-1.7-3.4-2-5.1-0.9c-1.7,1.2-2,3.4-0.9,5.1l0,0
		c1.2,1.7,3.4,2,5.1,0.9C620.8,261.8,621.2,259.5,620,257.8z M631.2,274.9L631.2,274.9c-1.1-1.7-3.3-2.3-5-1.2
		c-1.7,1.1-2.3,3.3-1.2,5c1.1,1.7,3.3,2.3,5,1.2C631.7,278.9,632.2,276.6,631.2,274.9z M641.3,292.6L641.3,292.6
		c-0.9-1.8-3.1-2.5-4.9-1.5c-1.8,0.9-2.5,3.1-1.5,4.9l0,0c0.9,1.8,3.1,2.5,4.9,1.5C641.5,296.6,642.2,294.4,641.3,292.6z M650.2,311
		L650.2,311c-0.8-1.8-3-2.7-4.8-1.9c-1.8,0.8-2.7,3-1.9,4.8l0,0c0.8,1.8,3,2.7,4.8,1.9C650.1,315,651,312.8,650.2,311L650.2,311z
		 M657.9,329.9L657.9,329.9c-0.7-1.9-2.8-2.9-4.7-2.2c-1.9,0.7-2.9,2.8-2.2,4.7v0c0.7,1.9,2.8,2.9,4.7,2.2
		C657.6,333.9,658.6,331.8,657.9,329.9z M664.3,349.3L664.3,349.3c-0.6-1.9-2.6-3-4.5-2.5c-1.9,0.6-3,2.6-2.5,4.5l0,0
		c0.6,1.9,2.6,3,4.5,2.5C663.8,353.2,664.9,351.2,664.3,349.3L664.3,349.3z M669.5,369L669.5,369c-0.4-2-2.4-3.2-4.4-2.8
		c-2,0.4-3.2,2.4-2.8,4.4l0,0c0.4,2,2.4,3.2,4.4,2.8C668.7,372.9,669.9,371,669.5,369z" style="fill: rgb(119, 39, 57);"></path>
	<path class="st0" d="M495.1,160.6c1,0,1.9-0.4,2.6-1.1c0.7-0.7,1.1-1.6,1.1-2.6s-0.4-1.9-1.1-2.6c-0.7-0.7-1.6-1.1-2.6-1.1
		c-1,0-1.9,0.4-2.6,1.1c-0.7,0.7-1.1,1.6-1.1,2.6s0.4,1.9,1.1,2.6C493.2,160.2,494.1,160.6,495.1,160.6" style="fill: rgb(119, 39, 57);"></path>
	<path class="st0" d="M227,160.6c1,0,1.9-0.4,2.6-1.1c0.7-0.7,1.1-1.6,1.1-2.6s-0.4-1.9-1.1-2.6c-0.7-0.7-1.6-1.1-2.6-1.1
		c-1,0-1.9,0.4-2.6,1.1c-0.7,0.7-1.1,1.6-1.1,2.6c0,1,0.4,1.9,1.1,2.6C225.1,160.2,226,160.6,227,160.6" style="fill: rgb(119, 39, 57);"></path>
	<path class="st0" d="M52.6,368.9L52.6,368.9c-0.4,2,0.8,3.9,2.8,4.4c2,0.4,3.9-0.8,4.4-2.8h0c0.4-2-0.8-3.9-2.8-4.4
		C55,365.7,53,367,52.6,368.9L52.6,368.9z M57.8,349.2L57.8,349.2c-0.6,1.9,0.5,4,2.5,4.5c1.9,0.6,4-0.5,4.5-2.5l0,0
		c0.6-1.9-0.5-4-2.5-4.5S58.3,347.3,57.8,349.2L57.8,349.2z M64.2,329.9L64.2,329.9c-0.7,1.9,0.3,4,2.2,4.7c1.9,0.7,4-0.3,4.7-2.2
		l0,0c0.7-1.9-0.3-4-2.2-4.7C67,327,64.9,328,64.2,329.9L64.2,329.9z M71.9,311L71.9,311c-0.8,1.8,0,4,1.9,4.8s4,0,4.8-1.9
		s0-4-1.9-4.8C74.9,308.3,72.7,309.1,71.9,311z M80.8,292.6L80.8,292.6c-0.9,1.8-0.3,4,1.5,4.9c1.8,0.9,4,0.3,4.9-1.5l0,0
		c0.9-1.8,0.3-4-1.5-4.9C84,290.1,81.7,290.8,80.8,292.6L80.8,292.6z M90.9,274.9L90.9,274.9c-1.1,1.7-0.5,4,1.2,5
		c1.7,1.1,4,0.5,5-1.2l0,0c1.1-1.7,0.5-4-1.2-5C94.2,272.6,91.9,273.2,90.9,274.9L90.9,274.9z M102.1,257.8L102.1,257.8
		c-1.2,1.7-0.8,3.9,0.9,5.1c1.7,1.2,3.9,0.8,5.1-0.9h0c1.2-1.7,0.8-3.9-0.9-5.1C105.5,255.8,103.2,256.2,102.1,257.8L102.1,257.8z
		 M114.3,241.5L114.3,241.5c-1.3,1.6-1,3.9,0.6,5.1c1.6,1.3,3.9,1,5.1-0.6c1.3-1.6,1-3.9-0.6-5.1
		C117.9,239.7,115.6,239.9,114.3,241.5z M127.6,226L127.6,226c-1.4,1.5-1.3,3.8,0.2,5.2c1.5,1.4,3.8,1.3,5.2-0.2v0
		c1.4-1.5,1.3-3.8-0.2-5.2C131.3,224.5,129,224.6,127.6,226z M141.9,211.4L141.9,211.4c-1.5,1.4-1.5,3.7-0.1,5.2s3.7,1.5,5.2,0.1
		l0,0c1.5-1.4,1.5-3.7,0.1-5.2C145.6,210.1,143.3,210,141.9,211.4z M157,197.8L157,197.8c-1.5,1.3-1.7,3.6-0.4,5.2
		c1.3,1.5,3.6,1.7,5.2,0.4h0c1.5-1.3,1.7-3.6,0.4-5.2C160.9,196.7,158.6,196.5,157,197.8L157,197.8z M173,185.1L173,185.1
		c-1.6,1.2-2,3.5-0.8,5.1c1.2,1.6,3.5,2,5.1,0.8l0,0c1.6-1.2,2-3.5,0.8-5.1C176.9,184.3,174.6,183.9,173,185.1L173,185.1z
		 M189.8,173.5L189.8,173.5c-1.7,1.1-2.2,3.4-1.1,5.1c1.1,1.7,3.4,2.2,5.1,1.1l0,0c1.7-1.1,2.2-3.4,1.1-5.1
		C193.8,172.9,191.5,172.4,189.8,173.5z M207.3,163L207.3,163c-1.8,1-2.4,3.2-1.4,5c1,1.8,3.2,2.4,5,1.4l0,0c1.8-1,2.4-3.2,1.4-5
		C211.3,162.7,209.1,162,207.3,163L207.3,163z" style="fill: rgb(119, 39, 57);"></path>
	<path class="st0" d="M52.3,393.3c1,0,1.9-0.4,2.6-1.1c0.7-0.7,1.1-1.6,1.1-2.6c0-1-0.4-1.9-1.1-2.6c-0.7-0.7-1.6-1.1-2.6-1.1
		c-1,0-1.9,0.4-2.6,1.1c-0.7,0.7-1.1,1.6-1.1,2.6c0,1,0.4,1.9,1.1,2.6C50.4,392.9,51.3,393.3,52.3,393.3" style="fill: rgb(119, 39, 57);"></path>
	<path class="st0" d="M409.8,752.2c1,0,1.9-0.4,2.6-1.1c0.7-0.7,1.1-1.6,1.1-2.6c0-1-0.4-1.9-1.1-2.6c-0.7-0.7-1.6-1.1-2.6-1.1
		c-1,0-1.9,0.4-2.6,1.1c-0.7,0.7-1.1,1.6-1.1,2.6c0,1,0.4,1.9,1.1,2.6C407.9,751.8,408.8,752.2,409.8,752.2" style="fill: rgb(119, 39, 57);"></path>
	<path class="st0" d="M669.4,510.7L669.4,510.7c0.5-2-0.8-3.9-2.7-4.4c-2-0.5-3.9,0.8-4.4,2.7l0,0c-0.5,2,0.8,3.9,2.7,4.4
		C666.9,513.9,668.9,512.6,669.4,510.7z M664,530.8L664,530.8c0.6-1.9-0.5-4-2.4-4.6c-1.9-0.6-4,0.5-4.6,2.4c-0.6,1.9,0.5,4,2.4,4.6
		C661.4,533.9,663.4,532.8,664,530.8z M657.3,550.6L657.3,550.6c0.7-1.9-0.2-4-2.1-4.7c-1.9-0.7-4,0.2-4.7,2.1
		c-0.7,1.9,0.2,4,2.1,4.7C654.5,553.5,656.6,552.5,657.3,550.6z M649.4,569.9L649.4,569.9c0.8-1.8,0-4-1.8-4.8c-1.8-0.8-4,0-4.8,1.8
		h0c-0.8,1.8,0,4,1.8,4.8C646.4,572.5,648.5,571.7,649.4,569.9z M640.1,588.6L640.1,588.6c1-1.8,0.3-4-1.5-4.9c-1.8-1-4-0.3-4.9,1.5
		l0,0c-1,1.8-0.3,4,1.5,4.9C637,591.1,639.2,590.4,640.1,588.6z M629.7,606.7L629.7,606.7c1.1-1.7,0.5-4-1.2-5c-1.7-1.1-4-0.5-5,1.2
		l0,0c-1.1,1.7-0.5,4,1.2,5C626.4,608.9,628.6,608.4,629.7,606.7L629.7,606.7z M618.1,624L618.1,624c1.2-1.6,0.8-3.9-0.8-5.1
		c-1.6-1.2-3.9-0.8-5.1,0.8l0,0c-1.2,1.6-0.8,3.9,0.8,5.1C614.6,626,616.9,625.7,618.1,624z M605.3,640.6L605.3,640.6
		c1.3-1.6,1.1-3.9-0.5-5.1c-1.6-1.3-3.9-1.1-5.1,0.5l0,0c-1.3,1.6-1.1,3.9,0.5,5.1C601.8,642.3,604.1,642.1,605.3,640.6L605.3,640.6
		z M591.6,656.2L591.6,656.2c1.4-1.5,1.3-3.8-0.2-5.2c-1.5-1.4-3.8-1.3-5.2,0.2c-1.4,1.5-1.3,3.8,0.2,5.2
		C587.9,657.8,590.2,657.7,591.6,656.2z M576.8,671L576.8,671c1.5-1.4,1.6-3.7,0.2-5.2c-1.4-1.5-3.7-1.6-5.2-0.2
		c-1.5,1.4-1.6,3.7-0.2,5.2C573,672.2,575.3,672.3,576.8,671z M561,684.7L561,684.7c1.6-1.3,1.8-3.6,0.5-5.1
		c-1.3-1.6-3.6-1.8-5.1-0.5c-1.6,1.3-1.8,3.6-0.5,5.1C557.2,685.7,559.5,686,561,684.7z M544.5,697.3L544.5,697.3
		c1.6-1.2,2-3.5,0.9-5.1c-1.2-1.6-3.5-2-5.1-0.9v0c-1.6,1.2-2,3.5-0.9,5.1C540.5,698.1,542.8,698.5,544.5,697.3z M527.1,708.9
		L527.1,708.9c1.7-1.1,2.2-3.3,1.2-5c-1.1-1.7-3.3-2.3-5-1.2l0,0c-1.7,1.1-2.2,3.3-1.2,5C523.1,709.4,525.4,710,527.1,708.9z
		 M509,719.3L509,719.3c1.8-0.9,2.5-3.2,1.5-4.9c-0.9-1.8-3.2-2.5-4.9-1.5l0,0c-1.8,0.9-2.5,3.2-1.5,4.9
		C505,719.5,507.2,720.2,509,719.3z M490.2,728.4L490.2,728.4c1.8-0.8,2.7-3,1.8-4.8c-0.8-1.8-3-2.7-4.8-1.8l0,0
		c-1.8,0.8-2.7,3-1.8,4.8C486.2,728.4,488.4,729.3,490.2,728.4z M470.9,736.3L470.9,736.3c1.9-0.7,2.9-2.8,2.2-4.7
		c-0.7-1.9-2.8-2.9-4.7-2.2l0,0c-1.9,0.7-2.9,2.8-2.2,4.7C466.9,736.1,469,737,470.9,736.3z M451.1,742.9L451.1,742.9
		c1.9-0.6,3-2.6,2.5-4.5c-0.6-1.9-2.6-3-4.5-2.5c-1.9,0.6-3,2.6-2.5,4.5C447.1,742.4,449.1,743.5,451.1,742.9z M430.8,748.2
		L430.8,748.2c2-0.4,3.2-2.4,2.8-4.4c-0.4-2-2.4-3.2-4.4-2.8l0,0c-2,0.4-3.2,2.4-2.8,4.4C426.9,747.4,428.9,748.6,430.8,748.2z" style="fill: rgb(119, 39, 57);"></path>
	<path class="st0" d="M669.8,493.2c1,0,1.9-0.4,2.6-1.1c0.7-0.7,1.1-1.6,1.1-2.6c0-1-0.4-1.9-1.1-2.6c-0.7-0.7-1.6-1.1-2.6-1.1
		c-1,0-1.9,0.4-2.6,1.1c-0.7,0.7-1.1,1.6-1.1,2.6c0,1,0.4,1.9,1.1,2.6C667.9,492.8,668.8,493.2,669.8,493.2" style="fill: rgb(119, 39, 57);"></path>
	<path class="st0" d="M52.3,493.2c1,0,1.9-0.4,2.6-1.1c0.7-0.7,1.1-1.6,1.1-2.6c0-1-0.4-1.9-1.1-2.6c-0.7-0.7-1.6-1.1-2.6-1.1
		c-1,0-1.9,0.4-2.6,1.1c-0.7,0.7-1.1,1.6-1.1,2.6c0,1,0.4,1.9,1.1,2.6C50.4,492.8,51.3,493.2,52.3,493.2" style="fill: rgb(119, 39, 57);"></path>
	<path class="st0" d="M291.2,748.2L291.2,748.2c2,0.4,3.9-0.8,4.4-2.8c0.4-2-0.8-3.9-2.8-4.4c-2-0.4-3.9,0.8-4.4,2.8
		C287.9,745.8,289.2,747.7,291.2,748.2z M271,742.9L271,742.9c1.9,0.6,4-0.5,4.5-2.5c0.6-1.9-0.5-4-2.5-4.5c-1.9-0.6-4,0.5-4.5,2.5
		C267.9,740.3,269,742.3,271,742.9z M251.2,736.3L251.2,736.3c1.9,0.7,4-0.3,4.7-2.2c0.7-1.9-0.3-4-2.2-4.7h0
		c-1.9-0.7-4,0.3-4.7,2.2C248.3,733.5,249.3,735.6,251.2,736.3z M231.8,728.4L231.8,728.4c1.8,0.8,4,0,4.8-1.8c0.8-1.8,0-4-1.8-4.8
		l0,0c-1.8-0.8-4,0-4.8,1.8C229.2,725.4,230,727.6,231.8,728.4L231.8,728.4z M213.1,719.3L213.1,719.3c1.8,0.9,4,0.3,4.9-1.5
		c0.9-1.8,0.3-4-1.5-4.9l0,0c-1.8-0.9-4-0.3-4.9,1.5C210.6,716.1,211.3,718.3,213.1,719.3L213.1,719.3z M195,708.9L195,708.9
		c1.7,1.1,4,0.5,5-1.2c1.1-1.7,0.5-4-1.2-5l0,0c-1.7-1.1-4-0.5-5,1.2C192.7,705.6,193.3,707.8,195,708.9z M177.6,697.4L177.6,697.4
		c1.6,1.2,3.9,0.8,5.1-0.9c1.2-1.6,0.8-3.9-0.9-5.1v0c-1.6-1.2-3.9-0.8-5.1,0.9C175.6,693.9,176,696.2,177.6,697.4z M161,684.7
		L161,684.7c1.6,1.3,3.9,1,5.1-0.5c1.3-1.6,1-3.9-0.5-5.1h0c-1.6-1.3-3.9-1-5.1,0.5C159.2,681.1,159.4,683.4,161,684.7L161,684.7z
		 M145.3,671L145.3,671c1.5,1.4,3.8,1.3,5.2-0.2c1.4-1.5,1.3-3.8-0.2-5.2l0,0c-1.5-1.4-3.8-1.3-5.2,0.2
		C143.7,667.3,143.8,669.6,145.3,671L145.3,671z M130.5,656.2L130.5,656.2c1.4,1.5,3.7,1.5,5.2,0.2c1.5-1.4,1.5-3.7,0.2-5.2
		c-1.4-1.5-3.7-1.5-5.2-0.2C129.2,652.4,129.1,654.8,130.5,656.2z M116.7,640.6L116.7,640.6c1.3,1.6,3.6,1.8,5.1,0.5
		c1.6-1.3,1.8-3.6,0.5-5.1c-1.3-1.6-3.6-1.8-5.1-0.5C115.7,636.7,115.4,639,116.7,640.6z M104,624L104,624c1.2,1.6,3.5,2,5.1,0.8
		c1.6-1.2,2-3.5,0.8-5.1c-1.2-1.6-3.5-2-5.1-0.8C103.2,620.1,102.8,622.4,104,624z M92.4,606.7L92.4,606.7c1.1,1.7,3.3,2.2,5,1.2
		c1.7-1.1,2.2-3.3,1.2-5l0,0c-1.1-1.7-3.3-2.2-5-1.2C91.8,602.7,91.3,605,92.4,606.7L92.4,606.7z M81.9,588.6L81.9,588.6
		c1,1.8,3.2,2.5,4.9,1.5c1.8-1,2.5-3.2,1.5-4.9l0,0c-1-1.8-3.2-2.5-4.9-1.5C81.6,584.6,81,586.8,81.9,588.6L81.9,588.6z M72.7,569.9
		L72.7,569.9c0.8,1.8,3,2.7,4.8,1.8c1.8-0.8,2.7-3,1.8-4.8l0,0c-0.8-1.8-3-2.7-4.8-1.8C72.7,565.9,71.8,568,72.7,569.9L72.7,569.9z
		 M64.7,550.6L64.7,550.6c0.7,1.9,2.8,2.8,4.7,2.1c1.9-0.7,2.8-2.8,2.1-4.7l0,0c-0.7-1.9-2.8-2.8-4.7-2.1
		C64.9,546.6,64,548.7,64.7,550.6L64.7,550.6L64.7,550.6z M58,530.8L58,530.8c0.6,1.9,2.6,3,4.6,2.4c1.9-0.6,3-2.6,2.4-4.6l0,0
		c-0.6-1.9-2.6-3-4.6-2.4C58.5,526.8,57.4,528.9,58,530.8L58,530.8z M52.7,510.6L52.7,510.6c0.5,2,2.4,3.2,4.4,2.7
		c2-0.5,3.2-2.4,2.7-4.4l0,0c-0.5-2-2.4-3.2-4.4-2.7C53.5,506.7,52.2,508.6,52.7,510.6L52.7,510.6z" style="fill: rgb(119, 39, 57);"></path>
	<path class="st0" d="M312.3,752.2c1,0,1.9-0.4,2.6-1.1c0.7-0.7,1.1-1.6,1.1-2.6c0-1-0.4-1.9-1.1-2.6c-0.7-0.7-1.6-1.1-2.6-1.1
		c-1,0-1.9,0.4-2.6,1.1c-0.7,0.7-1.1,1.6-1.1,2.6c0,1,0.4,1.9,1.1,2.6C310.4,751.8,311.3,752.2,312.3,752.2" style="fill: rgb(119, 39, 57);"></path>
</g>
</svg>
