<svg xmlns="http://www.w3.org/2000/svg" xmlns:xlink="http://www.w3.org/1999/xlink" version="1.1" id="_x33_" x="0px"
	y="0px" viewBox="0 0 90 133.7" style="enable-background:new 0 0 800 133.7;" xml:space="preserve">
	<style type="text/css">
		.st0 {
			fill: #0A0A0A;
		}
	</style>
	<g>
		<path class="st0"
			d="M80.3,80.5c-4.3,0.1-4,5.9,0.7,4.5c4.8-1.4,8.4-11-0.5-16.7c-9.3-6-19.7,3.2-18.2,14.4   c-2.5-1.3-6.4-2.2-10.5-2.3l0.4-0.2c-12.4,0.4-20.4-2.5-22.3-12.4C28,57.9,40.5,49.3,47.3,55c6.8,5.7,2.5,8-2.4,10   c-5,2,1,8.2,7.2,2.3c3.1-2.9,1.9-8.6-1.7-12.7c8.3-1.6,9.5-9.3,7.1-13.1c-3-4.8-9.3-4.8-12.2-2.3c-3,2.6-3,6.9-0.6,7.7   c2.5,0.8,1.4-1.7,0.4-3.9c-0.4-3.1,6.6-5.5,8.9-0.7c2.1,4.4-0.9,9.4-7.6,9.1c-3.4-1.9-7.8-2.3-12.4,0.2c-0.5,0.3-0.9,0.6-1.4,0.9   l0.1-0.2c0,0-16.8-7.4-13.7-30.3c7.2,3.6,18.8-3.4,12.6-14.3C24.3-5.2,6.2,0.4,4.2,19.2C3,30.6,6.4,46.6,17.5,57.1   c-4.3,15,3.4,30.9,15.9,34.7c-0.2,0.6-0.4,1.2-0.5,1.9c-3.4,15.5,11.6,25.1,20,21.3c6.5-3,9.7-9.1,7.6-14   c11.2,1.8,15.5,12.6,17,18.6c-0.8,2-1.9,3.9-3.5,5.9c-0.8,1-1.7,1.8-2.6,2.5c-3.7,0.6-9.2-0.9-11.6-2.1c0.9-2.1,0.4-5.6-3.1-5.8   c-4.4-0.2-5,9,2.4,12.1c5.7,2.4,15.8,0.9,20.7-8.7c4.9-8.2,3.9-26.7-10.5-35.5c-6.4-7.1-3.4-19,7.1-17.9   C86.8,71,84.4,81.1,80.3,80.5z M58.9,127C58.9,127,58.9,127,58.9,127c4.4,1.9,8.3,2.2,10.3,2.2C63,132,56.6,128.5,58.9,127z    M8.2,21.3C9,5.5,21.3-0.4,28.4,9.1c7.2,9.5-4.4,15.1-7.9,10.5c-3.4-4.5-0.4-6.4-3.4-6.4c-2.9,0.1-6.8,1.6-0.1,7.3   c-1,6.4-1.6,21.9,14.4,32.8c-1.3,1.2-2.4,2.6-3.3,4.2C6.9,49.6,7.9,28,8.2,21.3z M18.9,58.4c2.2,1.9,4.7,3.6,7.5,5   c-1.1,8.6,3.5,18.2,13.4,20.1c-2.4,1.5-4.5,3.7-5.8,6.8C16.8,83.4,17.7,65.6,18.9,58.4z M78.3,116.8c-2.7-9.8-10.6-17-18.9-17.5   c-0.6-0.9-1.4-1.7-2.4-2.4c-5.7-2.5-10.8,4.5-5.8,4.7c5,0.1,6.5,11.6-1.3,11.1c-8.5-0.5-16.6-8-12-18.9c4.8-11.4,12-8.4,18.1-7.2   C66.3,88.6,82.1,101.8,78.3,116.8z" />

	</g>
</svg>