<svg xmlns="http://www.w3.org/2000/svg" xmlns:xlink="http://www.w3.org/1999/xlink" version="1.1" id="_x31__1_" x="0px" y="0px" viewBox="0 0 792 123.2" style="enable-background:new 0 0 792 523.2;" xml:space="preserve">
	<g xmlns="http://www.w3.org/2000/svg">
		<path
			d="M632.1,40.1c10.7,2.7,21.7-5.5,18.7-13.7c-3-8.1-10.1-2.8-13.9,0.8c-3.8,3.6-15.7,0.5-8.4-12.2   c7.3-12.6,33.1-6.6,32.6,14.8c-0.6,21.4-28.2,27.8-36.7,27.8s-13,3.1-9.1,4.4c3.9,1.3,16.7,1.9,38.8-0.8   c56.2-6.3,71.7-38.4,60.8-45.9c-10.8-7.5-19.1,2.8-23.8,12.6S661.1,55.2,651.4,56c14.6-4.6,18.9-30.2,9.1-42.1   c-10.3-12.5-27.8-16-37.6-3.7C612.1,24.2,621.4,37.4,632.1,40.1z" />
		<path
			d="M509.5,67.3c-10.7,18.2-4.4,45.6,17.3,52.8c21.7,7.2,35.6-8.9,38.6-22.1c3-13.2,0.6-23.5-4.7-21.5c-5.1,2,2.9,8.2-0.6,21.5   c-3.6,13.3-16,21-29.7,19.3c-13.7-1.7-24.4-15.4-22-32.6c1.9-14,8.5-21.8,22.5-26c9.9-3.1,29.7-4,43.9-2.4   c14.3,1.6,17.9,2.3,17.9,2.3c9.4,1.7,22.5-4.5,23.8-12.6s-8-9.2-13.3-3.6c-5.2,5.6-14.8,10.7-28.3,10.2   C561.6,52.2,521.6,46.8,509.5,67.3z" />
		<path
			d="M546.3,83.1c-5.7,2.7-0.9,6.8-1.7,11.7c-1.6,8.6-8.6,12.2-15.7,9c-2.6-1.2-5.1-3.8-7-7c-2.6,1.2-5.1,1.5-6.6,1.6   c2,5.6,5.8,10.3,11.4,12.7c11.7,5,24.5,0.7,28.7-13.5C557.9,88.8,553.7,79.6,546.3,83.1z" />
		<path
			d="M410.9,109.3c-3.5-4.9,4.2-31,23.6-35.7c-5,2.7-18,11.8-16.1,20.6c1.9,8.7,13.1,2.7,10.6-1.5s0.3-8.9,0.3-8.9   c19.8-18.4,57.7-16.5,60.5-9.3c2.8,6.9,6.8,12.1,11.4,15.5c-0.2-1.7,0-4,0.7-6.8c-5.9-6.3-8.9-15.3-6.2-17.5   c5.4-4.6,3.2-13.9,0-14.3c-3.2-0.5-2,5.8-9.3,11.3c-62.3-12.6-92.8,37.2-89,51.2C400.8,127.8,416,117.2,410.9,109.3z" />
		<path
			d="M526,83.8c-5.5,5.8-11.2,6.7-16,5c-0.1,1.7-0.2,4.1,0,5.7c8.8,2.6,15.4,1.1,20.8-6.9c0.8-2,3.4-6.4,4.4-8.6   c2-7,8.9-13.4,22.9-13.6s32,6.9,61.1,10.6c14.5,7.6,18.6,14.9,20.7,17c2.2,2.1,9.5,2.9,6-4.6c13.9,15.6,24.7,14.7,24.4,4.4   c-0.3-10.3-8.7-14-8.7-14s55.4,14.4,78.2,38c16.8,17.5,31.7-27.5-19.1-42.5c-20.5-6-69.3-3.2-95.6-4.9c-26.4-1.7-61.6-9.3-74.9-9.2   c-13.4,0.1-28.6,4.2-34.1,17.1c-1.4,3.3-2.1,6.6-2.3,10c1.8,0.4,4.3-0.5,5.7-1.3c0.3-3.4,1.8-6.6,4.9-9.3   C527.6,74.5,531.3,77.1,526,83.8z" />
		<path
			d="M482.6,78.4c-0.1,0-5.5-1-13-1c-4.6,0-9.8,0.4-15,1.6c-5.2,1.2-10.5,3.3-14.9,6.7c-0.7,0.5-0.8,1.5-0.3,2.1   c0.5,0.7,1.5,0.8,2.1,0.3c4-3.1,8.8-5,13.8-6.2c5-1.2,10-1.5,14.4-1.5c3.6,0,6.7,0.2,8.9,0.5c1.1,0.1,2,0.2,2.6,0.3   c0.3,0,0.5,0.1,0.7,0.1c0.1,0,0.1,0,0.2,0l0,0l0,0c0.8,0.2,1.6-0.4,1.8-1.2C483.9,79.4,483.4,78.6,482.6,78.4z" />
		<path d="M683.6,62.5c22.3-0.6,64.4,6.1,82.6,30.4c16.2,24.1,25.9,5.7,20.1-4C782.1,81.9,750.4,42.9,683.6,62.5z" />
		<path
			d="M710,49.6c12.6-7.3,21.4-24.2,25.5-25.8c4.2-1.8,16.9,1.5,6.5,12.2c8.8,1,18.8,3.7,23.2,10.4c4.5,6.7,1.3,12.2-9.8,7.8   C744.3,49.7,714.1,47.8,710,49.6z" />
		<path
			d="M159.9,40.1c-10.7,2.7-21.7-5.5-18.7-13.7s10.1-2.8,13.9,0.8c3.8,3.6,15.7,0.5,8.4-12.2c-7.3-12.6-33.1-6.6-32.6,14.8   c0.6,21.4,28.2,27.8,36.7,27.8c8.5,0,13,3.1,9.1,4.4c-3.9,1.3-16.7,1.9-38.8-0.8c-56.1-6.3-71.6-38.3-60.8-45.8s19,2.8,23.8,12.6   c4.7,9.8,30.1,27.4,39.7,28.2c-14.6-4.6-18.9-30.2-9.1-42.1c10.3-12.5,27.8-16,37.6-3.7C179.9,24.2,170.7,37.4,159.9,40.1z" />
		<path
			d="M282.6,67.3c10.7,18.2,4.4,45.6-17.3,52.8c-21.7,7.2-35.6-8.9-38.6-22.1s-0.6-23.5,4.7-21.5c5.1,2-2.9,8.2,0.6,21.5   c3.6,13.3,16,21,29.7,19.3c13.7-1.7,24.4-15.4,22-32.6c-1.9-14-8.5-21.8-22.5-26c-9.9-3.1-29.7-4-43.9-2.4c-14.3,1.6-18,2.2-18,2.2   c-9.4,1.7-22.5-4.5-23.8-12.6s8-9.2,13.3-3.6C194,48,203.6,53.1,217,52.6C230.5,52.2,270.5,46.8,282.6,67.3z" />
		<path
			d="M245.7,83.1c5.7,2.7,0.9,6.8,1.7,11.7c1.6,8.6,8.6,12.2,15.7,9c2.6-1.2,5.1-3.8,7-7c2.6,1.2,5.1,1.5,6.6,1.6   c-2,5.6-5.8,10.3-11.4,12.7c-11.7,5-24.5,0.7-28.7-13.5C234.2,88.8,238.3,79.6,245.7,83.1z" />
		<path
			d="M381.2,109.3c3.5-4.9-4.2-31-23.6-35.7c5,2.7,18,11.8,16.1,20.6c-1.9,8.7-13.1,2.7-10.6-1.5c2.4-4.2-0.3-8.9-0.3-8.9   c-19.8-18.4-57.7-16.5-60.5-9.3c-2.8,6.9-6.8,12.1-11.4,15.5c0.2-1.7,0-4-0.7-6.8c5.9-6.3,8.9-15.3,6.2-17.5   c-5.4-4.6-3.2-13.9,0-14.3c3.2-0.5,2,5.8,9.3,11.3c62.3-12.6,92.8,37.2,89,51.2C391.3,127.8,376,117.2,381.2,109.3z" />
		<path
			d="M266,83.8c5.5,5.8,11.2,6.7,16,5c0.1,1.7,0.2,4.1,0,5.7c-8.8,2.6-15.4,1.1-20.8-6.9c-0.8-2-3.4-6.4-4.4-8.6   c-2-7-8.9-13.4-22.9-13.6c-14-0.2-32,6.9-61.1,10.6c-14.5,7.6-18.6,14.9-20.7,17c-2.2,2.1-9.5,2.9-6-4.6   c-13.9,15.6-24.7,14.7-24.4,4.4s8.7-14,8.7-14s-55.4,14.4-78.1,38c-16.8,17.5-31.7-27.5,19.1-42.5c20.5-6,69.3-3.2,95.6-4.9   c26.4-1.7,61.6-9.3,74.9-9.2c13.4,0.1,28.6,4.2,34,17.1c1.4,3.3,2.1,6.6,2.3,10c-1.8,0.4-4.3-0.5-5.7-1.3c-0.3-3.4-1.8-6.6-5-9.3   C264.5,74.5,260.8,77.1,266,83.8z" />
		<path
			d="M310,81.4L310,81.4c0.3-0.1,5.4-1,12.4-1c4.4,0,9.4,0.4,14.4,1.5c5,1.2,9.8,3.1,13.8,6.2c0.7,0.5,1.6,0.4,2.1-0.3   s0.4-1.6-0.3-2.1c-4.5-3.5-9.7-5.5-14.9-6.7c-5.2-1.2-10.5-1.6-15-1.6c-7.4,0-12.9,1-13,1c-0.8,0.2-1.4,0.9-1.2,1.8   C308.4,81,309.2,81.6,310,81.4z" />
		<path d="M108.4,62.5c-22.3-0.6-64.3,6.1-82.6,30.4c-16.3,24.1-26,5.6-20.2-4.1C9.9,81.9,41.6,42.9,108.4,62.5z" />
		<path
			d="M82.1,49.6c-12.6-7.3-21.4-24.2-25.5-25.8C52.4,22,39.6,25.2,50,35.9c-8.8,1-18.8,3.7-23.2,10.4c-4.5,6.7-1.3,12.2,9.8,7.8   C47.7,49.7,77.9,47.8,82.1,49.6z" />
		<path d="M384.5,56.1c-0.6-5.2-5.3-9.6-6.4-8.1c-4.2,5.3-4,20.9,15.7,26C393.8,74.1,388.2,59.3,384.5,56.1z" />
		<path
			d="M396.4,35.8c-2.1,1.2-8.1,7.2-10.3,18.2c4.9,6.4,9.5,20,9.5,20s5.2-13.4,10.3-19.6C404.2,43.4,398.5,37.1,396.4,35.8z" />
		<path d="M414.2,48.8c-1-1.5-5.9,2.7-6.7,7.9c-3.9,3-10,17.4-10,17.4C417.4,69.8,418.2,54.3,414.2,48.8z" />
	</g>
</svg>